<?xml version="1.0" encoding="utf-8"?>
<!-- Generator: Adobe Illustrator 16.0.3, SVG Export Plug-In . SVG Version: 6.00 Build 0)  -->
<!DOCTYPE svg PUBLIC "-//W3C//DTD SVG 1.1//EN" "http://www.w3.org/Graphics/SVG/1.1/DTD/svg11.dtd">
<svg version="1.1" id="Capa_1" xmlns="http://www.w3.org/2000/svg" xmlns:xlink="http://www.w3.org/1999/xlink" x="0px" y="0px"
	 width="228px" height="252px" viewBox="0 0 228 252" enable-background="new 0 0 228 252" xml:space="preserve">
<path fill-rule="evenodd" clip-rule="evenodd" d="M125.387,0c3.119,1.27,6.496,1.08,9.732,1.712
	c43.104,8.419,73.672,32.83,92.473,72.306c0.164,0.346,0.25,0.73,0.373,1.106c-0.547,0.723-1.289,0.421-1.906,0.423
	c-10.893,0.022-21.785-0.016-32.676,0.05c-1.654,0.01-2.629-0.506-3.607-1.886c-19.988-28.165-47.25-42.27-81.784-40.221
	c-29.103,1.727-52.046,15.568-68.907,39.312c-1.53,2.154-3.013,2.849-5.522,2.814C22.376,75.464,11.188,75.501,0,75.469
	c0-0.198,0-0.396,0-0.594c1.127-5.434,4.181-9.982,6.939-14.619c11.1-18.661,26.115-33.454,44.869-44.345
	C64.924,8.294,78.981,3.124,94.037,0.819C96.949,0.374,99.914,0.6,102.805,0C110.332,0,117.859,0,125.387,0z M127.598,251.276
	c27.555-2.884,51.424-14.271,71.584-33.245c12.109-11.397,21.582-24.706,28.416-40.259c-11.691,0-22.875,0.083-34.057-0.065
	c-2.469-0.032-3.879,0.755-5.299,2.744c-21.85,30.601-59.588,44.724-96.048,35.664c-21.97-5.458-39.442-17.805-52.674-36.157
	c-0.799-1.109-1.368-2.239-3.145-2.228c-11.776,0.082-23.553,0.042-35.593,0.042C17.781,218.237,64.562,257.873,127.598,251.276z"/>
<path fill-rule="evenodd" clip-rule="evenodd" d="M17.417,153.023c0-2.476-0.035-4.952,0.021-7.427
	c0.017-0.717-0.44-1.696,0.567-2.089c0.866-0.337,1.471,0.302,2.059,0.854c3.726,3.492,7.945,6.198,12.768,7.919
	c4.671,1.666,9.424,2.18,14.288,0.94c3.687-0.939,5.983-3.377,6.268-6.634c0.324-3.695-1.181-6.314-5-7.843
	c-2.832-1.134-5.836-1.838-8.769-2.719c-1.323-0.397-2.671-0.714-3.982-1.146c-13.733-4.534-19.204-13.274-17.507-27.934
	c1.234-10.664,11.143-19.663,23.126-20.803c8.628-0.821,16.944,0.541,24.927,3.999c1.595,0.691,2.265,1.523,2.218,3.298
	c-0.117,4.454-0.01,8.913-0.062,13.369c-0.011,0.906,0.537,2.153-0.694,2.625c-0.992,0.381-1.551-0.646-2.218-1.193
	c-6.167-5.068-12.956-8.38-21.216-7.396c-1.259,0.15-2.536,0.479-3.707,0.964c-3.076,1.272-5.112,3.492-5.12,6.959
	c-0.009,3.401,2.002,5.526,5.098,6.537c4.411,1.44,8.911,2.608,13.309,4.083c8.176,2.744,14.835,7.129,16.632,16.377
	c3.47,17.86-6.938,31.459-25.089,32.798c-9.195,0.678-17.882-1.165-26.18-5.146c-1.427-0.684-1.815-1.522-1.763-2.966
	C17.481,157.979,17.417,155.5,17.417,153.023z M169.594,164.746c-0.014,1.934,0.491,2.588,2.463,2.513
	c3.755-0.143,7.527-0.196,11.276,0.014c2.544,0.143,3.406-0.509,3.354-3.23c-0.18-9.496-0.004-18.999-0.117-28.497
	c-0.027-2.2,0.575-2.89,2.816-2.844c6.825,0.141,13.655-0.004,20.481,0.085c1.926,0.025,2.601-0.551,2.506-2.533
	c-0.159-3.356-0.166-6.732,0.002-10.088c0.104-2.067-0.5-2.702-2.613-2.66c-6.825,0.134-13.655-0.019-20.482,0.092
	c-1.98,0.032-2.834-0.378-2.71-2.567c0.185-3.254,0.163-6.533,0.006-9.791c-0.099-2.051,0.519-2.713,2.626-2.68
	c7.618,0.12,15.239-0.022,22.857,0.094c1.99,0.03,2.587-0.604,2.521-2.519c-0.117-3.36-0.175-6.735,0.016-10.089
	c0.132-2.323-0.761-2.766-2.899-2.751c-13.159,0.094-26.321,0.094-39.481-0.001c-2.097-0.015-2.639,0.583-2.624,2.647
	c0.094,12.368,0.047,24.738,0.047,37.107C169.638,139.613,169.679,152.181,169.594,164.746z M78.365,164.776
	c-0.003,1.39-0.021,2.521,1.945,2.471c4.051-0.104,8.106-0.075,12.158-0.007c1.478,0.024,1.815-0.623,1.813-1.96
	c-0.029-18.782-0.035-37.564,0.007-56.347c0.003-1.567-0.53-2.046-2.059-2.011c-3.755,0.087-7.518,0.149-11.267-0.019
	c-2.153-0.096-2.646,0.704-2.626,2.712c0.09,9.192,0.039,18.386,0.039,27.58C78.376,146.39,78.386,155.583,78.365,164.776z
	 M93.081,98.56c1.277,0.045,1.73-0.376,1.706-1.682c-0.07-3.751-0.074-7.506,0-11.257c0.027-1.412-0.444-1.914-1.865-1.87
	c-2.763,0.085-5.53,0.024-8.295,0.024c-6.598,0-6.646,0-6.574,6.599c0.029,2.632-1.146,6.065,0.502,7.681
	c1.649,1.617,5.074,0.267,7.238,0.483C88.538,98.538,90.812,98.48,93.081,98.56z M158.661,167.218c-1.386,0-2.771,0-4.629,0
	c-2.356-0.279-5.917,1.209-7.828-0.579c-1.729-1.617-1.741-5.079-2.496-7.732c-0.728-2.56-0.684-5.969-2.355-7.461
	c-1.837-1.639-5.287-0.435-8.031-0.499c-3.563-0.083-7.135,0.092-10.691-0.068c-1.751-0.078-2.443,0.551-2.819,2.164
	c-0.897,3.849-2.105,7.632-2.854,11.506c-0.441,2.283-1.52,2.8-3.63,2.712c-3.658-0.151-7.332-0.17-10.988,0.004
	c-2.449,0.115-2.962-0.433-2.242-2.924c6.342-21.924,12.548-43.887,18.795-65.838c0.838-2.946,1.794-5.866,2.478-8.848
	c0.404-1.764,1.138-2.419,3.008-2.361c4.551,0.143,9.111,0.141,13.661,0.002c1.943-0.06,2.679,0.602,3.205,2.474
	c6.84,24.347,13.783,48.666,20.689,72.994C163.193,167.211,163.17,167.218,158.661,167.218z M137.486,134.476
	c-2.04-7.758-4.079-15.517-6.118-23.276c-0.224,0.021-0.446,0.042-0.669,0.063c-2.021,7.701-4.038,15.402-6.07,23.1
	c-0.312,1.18-0.164,1.895,1.309,1.875c3.354-0.046,6.708-0.042,10.063,0.002C137.307,136.256,137.828,135.774,137.486,134.476z"/>
</svg>
